<svg width="109" height="109" viewBox="0 0 109 109" fill="none" xmlns="http://www.w3.org/2000/svg">
<path d="M54.5 21.3H54.4999C53.0426 21.3002 51.636 21.8352 50.5469 22.8037C49.4579 23.7721 48.7621 25.1065 48.5916 26.5538L48.5899 26.5681L48.589 26.5825L48.5509 27.2201L48.55 27.2351V27.25V59.95V59.9506C48.5517 61.4671 49.1324 62.9257 50.1734 64.0285C51.2145 65.1312 52.6374 65.7949 54.1513 65.8837C55.6652 65.9726 57.156 65.48 58.3189 64.5067C59.4818 63.5333 60.2292 62.1526 60.4084 60.6467L60.4101 60.6321L60.411 60.6175L60.4491 59.9799L60.45 59.9649V59.95V27.25C60.45 25.672 59.8231 24.1586 58.7073 23.0427C57.5914 21.9269 56.078 21.3 54.5 21.3ZM54.5 0.5C84.3242 0.5 108.5 24.6758 108.5 54.5C108.5 84.3242 84.3242 108.5 54.5 108.5C24.6758 108.5 0.5 84.3242 0.5 54.5C0.5 24.6758 24.6758 0.5 54.5 0.5ZM54.5 70.35C52.922 70.35 51.4086 70.9769 50.2927 72.0927C49.1769 73.2085 48.55 74.722 48.55 76.3C48.55 77.878 49.1769 79.3914 50.2927 80.5073C51.4086 81.6231 52.922 82.25 54.5 82.25C56.078 82.25 57.5914 81.6231 58.7073 80.5073C59.8231 79.3914 60.45 77.878 60.45 76.3C60.45 74.722 59.8231 73.2085 58.7073 72.0927C57.5914 70.9769 56.078 70.35 54.5 70.35Z" fill="url(#paint0_linear_1554_15441)" stroke="url(#paint1_linear_1554_15441)"/>
<defs>
<linearGradient id="paint0_linear_1554_15441" x1="93.5" y1="82" x2="13.5" y2="12" gradientUnits="userSpaceOnUse">
<stop stop-color="#89F1FF"/>
<stop offset="0.335" stop-color="#C3F8FF"/>
<stop offset="0.56" stop-color="#C0F6FD"/>
<stop offset="0.985" stop-color="#9EF3FF"/>
</linearGradient>
<linearGradient id="paint1_linear_1554_15441" x1="32.5" y1="21.5" x2="75.5" y2="86" gradientUnits="userSpaceOnUse">
<stop stop-color="#D1F9FF"/>
<stop offset="1" stop-color="#16A2B5"/>
</linearGradient>
</defs>
</svg>
